<svg width="491" height="491" viewBox="0 0 491 491" fill="none" xmlns="http://www.w3.org/2000/svg">
<g clip-path="url(#clip0_82_30942)">
<mask id="mask0_82_30942" style="mask-type:luminance" maskUnits="userSpaceOnUse" x="-49" y="-49" width="590" height="590">
<path d="M540.038 -48.9967H-49V540.041H540.038V-48.9967Z" fill="black" fill-opacity="0.15"/>
</mask>
<g mask="url(#mask0_82_30942)">
<mask id="mask1_82_30942" style="mask-type:luminance" maskUnits="userSpaceOnUse" x="224" y="198" width="120" height="121">
<path d="M343.089 198.859H224.312V318.243H343.089V198.859Z" fill="white"/>
</mask>
<g mask="url(#mask1_82_30942)">
<mask id="mask2_82_30942" style="mask-type:luminance" maskUnits="userSpaceOnUse" x="224" y="199" width="120" height="119">
<path d="M224.505 199.345H343.041V317.878H224.505V199.345Z" fill="white"/>
</mask>
<g mask="url(#mask2_82_30942)">
<mask id="mask3_82_30942" style="mask-type:luminance" maskUnits="userSpaceOnUse" x="224" y="198" width="120" height="121">
<path d="M343.089 198.859H224.312V318.242H343.089V198.859Z" fill="white"/>
</mask>
<g mask="url(#mask3_82_30942)">
<mask id="mask4_82_30942" style="mask-type:luminance" maskUnits="userSpaceOnUse" x="240" y="238" width="52" height="51">
<path d="M240.673 238.856H291.577V288.548H240.673V238.856Z" fill="white"/>
</mask>
<g mask="url(#mask4_82_30942)">
<mask id="mask5_82_30942" style="mask-type:luminance" maskUnits="userSpaceOnUse" x="240" y="239" width="52" height="51">
<path d="M266.305 239.088L291.327 264.109L265.785 289.654L240.761 264.63L266.305 239.088Z" fill="white"/>
</mask>
<g mask="url(#mask5_82_30942)">
<mask id="mask6_82_30942" style="mask-type:luminance" maskUnits="userSpaceOnUse" x="235" y="219" width="71" height="72">
<path d="M274.773 219.682L305.53 250.439L265.91 290.059L235.153 259.302L274.773 219.682Z" fill="white"/>
</mask>
<g mask="url(#mask6_82_30942)">
<mask id="mask7_82_30942" style="mask-type:luminance" maskUnits="userSpaceOnUse" x="235" y="219" width="71" height="72">
<path d="M274.773 219.682L305.53 250.439L265.91 290.059L235.153 259.302L274.773 219.682Z" fill="white"/>
</mask>
<g mask="url(#mask7_82_30942)">
<path d="M286.925 262.455L290.175 259.204C296.825 252.555 296.813 241.723 290.151 235.061C283.492 228.4 272.658 228.386 266.008 235.038L262.758 238.288C260.883 236.512 257.934 236.529 256.101 238.364L238.534 255.931C238.312 256.153 238.113 256.395 237.94 256.655C237.765 256.915 237.618 257.19 237.5 257.479C237.379 257.77 237.289 258.068 237.228 258.376C237.166 258.684 237.138 258.994 237.138 259.306C237.138 259.621 237.168 259.931 237.23 260.239C237.292 260.547 237.382 260.845 237.502 261.136C237.623 261.425 237.77 261.702 237.945 261.962C238.12 262.223 238.317 262.464 238.539 262.687L262.526 286.674C262.746 286.894 262.988 287.093 263.25 287.268C263.511 287.443 263.785 287.59 264.077 287.71C264.365 287.831 264.664 287.921 264.971 287.983C265.279 288.044 265.592 288.075 265.904 288.075C266.219 288.075 266.529 288.044 266.837 287.985C267.144 287.923 267.443 287.834 267.732 287.713C268.023 287.594 268.297 287.448 268.558 287.272C268.818 287.1 269.06 286.901 269.282 286.678L286.849 269.111C288.684 267.277 288.7 264.327 286.925 262.455ZM267.885 262.859C267.765 262.949 267.469 263.129 267.445 263.141C266.524 263.648 265.445 263.742 264.448 263.458L260.914 269.161C260.85 269.289 260.76 269.398 260.644 269.483C260.528 269.568 260.398 269.623 260.256 269.646C260.114 269.672 259.974 269.663 259.837 269.62C259.7 269.578 259.579 269.507 259.475 269.407L255.879 265.811C255.779 265.707 255.708 265.586 255.666 265.449C255.623 265.312 255.614 265.17 255.637 265.03C255.663 264.888 255.718 264.758 255.803 264.642C255.888 264.526 255.997 264.436 256.125 264.372L261.754 260.764C261.47 259.768 261.563 258.688 262.072 257.768C262.083 257.744 262.263 257.448 262.353 257.327C262.464 257.178 262.583 257.041 262.713 256.911C262.898 256.726 263.097 256.563 263.312 256.418C263.527 256.274 263.755 256.153 263.994 256.054C264.233 255.954 264.479 255.881 264.735 255.831C264.988 255.779 265.246 255.755 265.504 255.755C265.764 255.755 266.02 255.781 266.276 255.831C266.529 255.881 266.778 255.957 267.017 256.056C267.256 256.156 267.483 256.279 267.698 256.423C267.916 256.567 268.115 256.731 268.297 256.913C268.482 257.098 268.645 257.297 268.79 257.512C268.934 257.727 269.057 257.957 269.157 258.196C269.256 258.435 269.329 258.684 269.381 258.937C269.431 259.19 269.457 259.448 269.457 259.706C269.457 259.967 269.434 260.222 269.381 260.478C269.332 260.731 269.256 260.98 269.159 261.219C269.06 261.458 268.936 261.685 268.794 261.901C268.65 262.116 268.487 262.315 268.302 262.497C268.172 262.627 268.032 262.748 267.885 262.859ZM282.808 258.319L266.891 242.404L270.134 239.164C274.514 234.782 281.646 234.787 286.037 239.178C290.426 243.567 290.431 250.697 286.049 255.078L282.808 258.319Z" fill="black"/>
</g>
</g>
</g>
</g>
<mask id="mask8_82_30942" style="mask-type:luminance" maskUnits="userSpaceOnUse" x="227" y="216" width="99" height="99">
<path d="M227.345 216.433H325.518V314.606H227.345V216.433Z" fill="white"/>
</mask>
<g mask="url(#mask8_82_30942)">
<mask id="mask9_82_30942" style="mask-type:luminance" maskUnits="userSpaceOnUse" x="224" y="199" width="119" height="119">
<path d="M291.329 199.482L342.939 251.092L276.21 317.819L224.603 266.209L291.329 199.482Z" fill="white"/>
</mask>
<g mask="url(#mask9_82_30942)">
<mask id="mask10_82_30942" style="mask-type:luminance" maskUnits="userSpaceOnUse" x="224" y="199" width="119" height="119">
<path d="M291.331 199.483L342.941 251.092L276.212 317.819L224.604 266.209L291.331 199.483Z" fill="white"/>
</mask>
<g mask="url(#mask10_82_30942)">
<mask id="mask11_82_30942" style="mask-type:luminance" maskUnits="userSpaceOnUse" x="224" y="199" width="119" height="119">
<path d="M291.333 199.483L342.943 251.093L276.214 317.82L224.606 266.21L291.333 199.483Z" fill="white"/>
</mask>
<g mask="url(#mask11_82_30942)">
<path d="M311.622 271.344L317.095 265.871C328.295 254.672 328.314 236.463 317.14 225.29C305.965 214.114 287.754 214.128 276.555 225.328L271.079 230.803C267.938 227.825 262.981 227.865 259.894 230.952L230.304 260.54C229.932 260.914 229.599 261.321 229.305 261.759C229.012 262.197 228.763 262.661 228.562 263.149C228.358 263.634 228.207 264.138 228.103 264.654C227.998 265.173 227.946 265.693 227.946 266.221C227.946 266.749 227.996 267.27 228.098 267.788C228.202 268.304 228.353 268.806 228.555 269.294C228.756 269.779 229.002 270.243 229.296 270.681C229.587 271.119 229.918 271.524 230.292 271.895L270.53 312.133C270.902 312.507 271.306 312.839 271.744 313.132C272.182 313.423 272.646 313.67 273.132 313.871C273.619 314.072 274.121 314.226 274.637 314.328C275.156 314.429 275.676 314.481 276.204 314.479C276.732 314.479 277.253 314.427 277.771 314.323C278.287 314.221 278.792 314.067 279.277 313.866C279.765 313.662 280.228 313.416 280.666 313.123C281.107 312.829 281.512 312.495 281.886 312.121L311.473 282.534C314.56 279.447 314.6 274.487 311.622 271.344ZM279.618 272.087C279.417 272.239 278.915 272.542 278.877 272.563C277.326 273.42 275.513 273.578 273.837 273.105L267.879 282.704C267.824 282.811 267.76 282.91 267.682 283.002C267.607 283.092 267.519 283.175 267.424 283.246C267.327 283.317 267.225 283.376 267.114 283.424C267.005 283.469 266.892 283.504 266.773 283.523C266.655 283.544 266.537 283.552 266.418 283.544C266.3 283.535 266.181 283.516 266.068 283.481C265.954 283.445 265.845 283.398 265.744 283.338C265.639 283.277 265.545 283.206 265.459 283.123L259.425 277.091C259.343 277.004 259.272 276.909 259.212 276.807C259.151 276.703 259.104 276.597 259.07 276.481C259.035 276.367 259.014 276.251 259.006 276.133C258.999 276.012 259.006 275.894 259.025 275.778C259.047 275.659 259.08 275.546 259.127 275.434C259.175 275.325 259.234 275.224 259.305 275.127C259.376 275.03 259.456 274.944 259.549 274.866C259.639 274.79 259.738 274.724 259.844 274.67L269.32 268.588C268.847 266.912 269.006 265.099 269.862 263.551C269.884 263.511 270.187 263.009 270.338 262.808C270.523 262.559 270.727 262.325 270.944 262.105C271.254 261.797 271.588 261.52 271.953 261.278C272.315 261.035 272.696 260.831 273.101 260.663C273.503 260.495 273.918 260.369 274.346 260.284C274.772 260.199 275.205 260.156 275.641 260.154C276.076 260.154 276.507 260.197 276.936 260.282C277.362 260.365 277.778 260.49 278.181 260.656C278.583 260.824 278.964 261.028 279.327 261.269C279.689 261.51 280.025 261.785 280.333 262.093C280.64 262.4 280.915 262.737 281.156 263.099C281.398 263.461 281.601 263.842 281.77 264.245C281.935 264.649 282.061 265.064 282.146 265.49C282.229 265.918 282.271 266.349 282.271 266.785C282.271 267.22 282.226 267.653 282.141 268.079C282.056 268.508 281.931 268.922 281.762 269.327C281.594 269.729 281.391 270.111 281.147 270.475C280.906 270.837 280.629 271.173 280.321 271.481C280.101 271.699 279.866 271.902 279.618 272.087ZM304.717 264.408L278.018 237.708L283.476 232.249C290.855 224.871 302.842 224.857 310.207 232.221C317.571 239.585 317.552 251.571 310.176 258.949L304.717 264.408Z" fill="black"/>
</g>
</g>
</g>
</g>
<mask id="mask12_82_30942" style="mask-type:luminance" maskUnits="userSpaceOnUse" x="235" y="222" width="86" height="86">
<path d="M235.826 222.494H320.667V307.334H235.826V222.494Z" fill="white"/>
</mask>
<g mask="url(#mask12_82_30942)">
<mask id="mask13_82_30942" style="mask-type:luminance" maskUnits="userSpaceOnUse" x="233" y="208" width="103" height="103">
<path d="M290.832 208.004L335.665 252.836L278.319 310.18L233.486 265.347L290.832 208.004Z" fill="white"/>
</mask>
<g mask="url(#mask13_82_30942)">
<mask id="mask14_82_30942" style="mask-type:luminance" maskUnits="userSpaceOnUse" x="233" y="208" width="103" height="103">
<path d="M290.832 208.004L335.665 252.836L278.319 310.18L233.486 265.347L290.832 208.004Z" fill="white"/>
</mask>
<g mask="url(#mask14_82_30942)">
<mask id="mask15_82_30942" style="mask-type:luminance" maskUnits="userSpaceOnUse" x="233" y="208" width="103" height="103">
<path d="M290.832 208.004L335.665 252.836L278.319 310.18L233.486 265.347L290.832 208.004Z" fill="white"/>
</mask>
<g mask="url(#mask15_82_30942)">
<path d="M308.701 270.19L313.405 265.487C323.027 255.864 322.959 240.129 313.251 230.421C303.543 220.713 287.806 220.637 278.183 230.263L273.477 234.969C270.747 232.381 266.463 232.391 263.811 235.044L238.383 260.473C238.063 260.792 237.777 261.14 237.526 261.519C237.273 261.898 237.062 262.296 236.889 262.717C236.716 263.136 236.586 263.569 236.501 264.017C236.413 264.462 236.371 264.914 236.373 265.368C236.376 265.825 236.42 266.275 236.51 266.722C236.603 267.17 236.735 267.605 236.913 268.027C237.088 268.448 237.303 268.848 237.559 269.229C237.812 269.608 238.101 269.961 238.426 270.285L273.384 305.242C273.709 305.566 274.059 305.855 274.44 306.11C274.819 306.366 275.221 306.581 275.643 306.757C276.064 306.932 276.497 307.067 276.945 307.157C277.392 307.249 277.844 307.294 278.299 307.296C278.756 307.299 279.205 307.256 279.653 307.168C280.1 307.083 280.533 306.953 280.952 306.78C281.374 306.607 281.771 306.397 282.15 306.143C282.527 305.893 282.877 305.606 283.197 305.287L308.625 279.858C311.279 277.204 311.288 272.92 308.701 270.19ZM281.049 270.683C280.877 270.81 280.443 271.071 280.41 271.09C279.075 271.821 277.508 271.951 276.059 271.535L270.956 279.801C270.911 279.893 270.854 279.979 270.788 280.057C270.721 280.135 270.648 280.204 270.565 280.265C270.482 280.327 270.392 280.376 270.298 280.417C270.203 280.457 270.106 280.485 270.004 280.504C269.902 280.521 269.801 280.525 269.696 280.518C269.595 280.511 269.493 280.492 269.396 280.462C269.296 280.431 269.202 280.391 269.112 280.338C269.024 280.284 268.941 280.222 268.865 280.151L263.624 274.91C263.553 274.835 263.492 274.752 263.437 274.664C263.385 274.574 263.345 274.48 263.314 274.383C263.284 274.283 263.265 274.181 263.258 274.08C263.25 273.975 263.255 273.874 263.274 273.772C263.291 273.67 263.319 273.573 263.359 273.478C263.4 273.384 263.449 273.294 263.511 273.211C263.572 273.13 263.641 273.055 263.719 272.988C263.8 272.922 263.885 272.868 263.975 272.82L272.135 267.61C271.718 266.159 271.846 264.592 272.58 263.259C272.599 263.224 272.857 262.793 272.987 262.62C273.145 262.404 273.321 262.203 273.508 262.016C273.773 261.751 274.061 261.514 274.374 261.306C274.686 261.098 275.015 260.923 275.363 260.781C275.711 260.636 276.069 260.53 276.438 260.459C276.807 260.385 277.179 260.35 277.555 260.352C277.932 260.354 278.306 260.392 278.675 260.466C279.044 260.542 279.404 260.653 279.752 260.797C280.103 260.944 280.434 261.121 280.746 261.332C281.061 261.543 281.353 261.782 281.62 262.049C281.887 262.317 282.127 262.608 282.337 262.921C282.548 263.235 282.725 263.567 282.87 263.915C283.017 264.265 283.128 264.623 283.201 264.994C283.277 265.364 283.315 265.735 283.317 266.112C283.317 266.49 283.284 266.862 283.211 267.231C283.14 267.601 283.031 267.958 282.889 268.306C282.747 268.654 282.572 268.983 282.363 269.295C282.155 269.608 281.918 269.897 281.653 270.159C281.464 270.349 281.263 270.522 281.049 270.683ZM302.7 264.163L279.504 240.967L284.196 236.278C290.535 229.936 300.894 229.981 307.292 236.379C313.691 242.776 313.731 253.132 307.392 259.474L302.7 264.163Z" fill="black"/>
</g>
</g>
</g>
</g>
<mask id="mask16_82_30942" style="mask-type:luminance" maskUnits="userSpaceOnUse" x="230" y="219" width="94" height="94">
<path d="M230.37 219.464H323.089V312.182H230.37V219.464Z" fill="white"/>
</mask>
<g mask="url(#mask16_82_30942)">
<mask id="mask17_82_30942" style="mask-type:luminance" maskUnits="userSpaceOnUse" x="227" y="202" width="113" height="114">
<path d="M290.428 202.988L339.431 251.991L276.352 315.07L227.349 266.067L290.428 202.988Z" fill="white"/>
</mask>
<g mask="url(#mask17_82_30942)">
<mask id="mask18_82_30942" style="mask-type:luminance" maskUnits="userSpaceOnUse" x="227" y="202" width="113" height="114">
<path d="M290.43 202.988L339.433 251.991L276.354 315.07L227.351 266.067L290.43 202.988Z" fill="white"/>
</mask>
<g mask="url(#mask18_82_30942)">
<mask id="mask19_82_30942" style="mask-type:luminance" maskUnits="userSpaceOnUse" x="227" y="202" width="113" height="114">
<path d="M290.432 202.988L339.435 251.991L276.356 315.07L227.353 266.067L290.432 202.988Z" fill="white"/>
</mask>
<g mask="url(#mask19_82_30942)">
<path d="M309.802 271.114L314.976 265.936C325.562 255.353 325.544 238.1 314.934 227.491C304.324 216.881 287.072 216.857 276.483 227.443L271.308 232.618C268.326 229.792 263.629 229.82 260.71 232.736L232.739 260.707C232.387 261.06 232.072 261.444 231.795 261.86C231.518 262.274 231.284 262.712 231.094 263.174C230.902 263.636 230.758 264.111 230.663 264.601C230.566 265.089 230.517 265.584 230.517 266.083C230.519 266.583 230.566 267.077 230.666 267.568C230.763 268.058 230.907 268.533 231.099 268.995C231.291 269.459 231.525 269.897 231.804 270.311C232.081 270.728 232.399 271.111 232.751 271.466L270.956 309.671C271.311 310.023 271.694 310.341 272.111 310.618C272.525 310.897 272.963 311.131 273.427 311.323C273.889 311.515 274.364 311.659 274.854 311.756C275.344 311.856 275.839 311.905 276.339 311.905C276.838 311.905 277.333 311.858 277.821 311.761C278.311 311.664 278.786 311.52 279.248 311.33C279.71 311.138 280.148 310.904 280.562 310.627C280.978 310.35 281.362 310.035 281.715 309.683L309.686 281.712C312.604 278.795 312.63 274.096 309.802 271.114ZM279.482 271.75C279.293 271.892 278.82 272.179 278.782 272.2C277.316 273.007 275.598 273.154 274.009 272.702L268.385 281.785C268.333 281.884 268.271 281.979 268.198 282.064C268.127 282.152 268.044 282.228 267.954 282.296C267.862 282.363 267.765 282.419 267.661 282.462C267.556 282.507 267.45 282.538 267.339 282.557C267.227 282.578 267.114 282.583 267.002 282.576C266.889 282.569 266.778 282.547 266.671 282.514C266.562 282.481 266.458 282.436 266.361 282.379C266.264 282.322 266.174 282.254 266.091 282.176L260.362 276.447C260.284 276.366 260.218 276.276 260.161 276.179C260.102 276.08 260.057 275.978 260.024 275.869C259.991 275.763 259.972 275.652 259.965 275.538C259.958 275.424 259.962 275.313 259.981 275.202C260 275.09 260.033 274.982 260.078 274.88C260.121 274.776 260.178 274.679 260.244 274.586C260.313 274.496 260.388 274.413 260.476 274.342C260.561 274.269 260.656 274.208 260.755 274.155L269.72 268.415C269.268 266.824 269.415 265.106 270.224 263.643C270.243 263.605 270.53 263.129 270.672 262.94C270.847 262.703 271.039 262.483 271.247 262.274C271.538 261.983 271.855 261.723 272.198 261.493C272.542 261.264 272.904 261.072 273.285 260.913C273.666 260.755 274.059 260.636 274.464 260.556C274.869 260.475 275.278 260.435 275.69 260.437C276.104 260.437 276.512 260.478 276.916 260.558C277.323 260.639 277.716 260.759 278.098 260.918C278.479 261.077 278.841 261.271 279.186 261.5C279.53 261.73 279.847 261.99 280.14 262.284C280.432 262.575 280.692 262.892 280.922 263.238C281.151 263.581 281.345 263.943 281.504 264.324C281.663 264.706 281.783 265.101 281.864 265.506C281.944 265.91 281.984 266.32 281.987 266.732C281.987 267.146 281.947 267.553 281.866 267.958C281.786 268.363 281.667 268.756 281.509 269.137C281.352 269.52 281.158 269.883 280.929 270.224C280.699 270.567 280.439 270.884 280.148 271.175C279.939 271.383 279.719 271.575 279.482 271.75ZM303.244 264.526L277.896 239.175L283.054 234.017C290.031 227.041 301.389 227.053 308.381 234.045C315.372 241.038 315.381 252.391 308.405 259.365L303.244 264.526Z" fill="black"/>
</g>
</g>
</g>
</g>
</g>
</g>
</g>
</g>
<mask id="mask20_82_30942" style="mask-type:luminance" maskUnits="userSpaceOnUse" x="203" y="239" width="54" height="56">
<path d="M203.1 239.462H256.428V294.003H203.1V239.462Z" fill="white"/>
</mask>
<g mask="url(#mask20_82_30942)">
<mask id="mask21_82_30942" style="mask-type:luminance" maskUnits="userSpaceOnUse" x="203" y="239" width="55" height="56">
<path d="M212.279 239.642L257.796 248.438L248.914 294.402L203.397 285.606L212.279 239.642Z" fill="white"/>
</mask>
<g mask="url(#mask21_82_30942)">
<mask id="mask22_82_30942" style="mask-type:luminance" maskUnits="userSpaceOnUse" x="193" y="212" width="70" height="83">
<path d="M207.279 212.646L262.614 223.339L248.818 294.739L193.482 284.046L207.279 212.646Z" fill="white"/>
</mask>
<g mask="url(#mask22_82_30942)">
<path d="M251.237 249.686L252.367 243.843C254.675 231.894 246.827 220.287 234.878 217.979C222.928 215.669 211.319 223.514 209.009 235.466L207.88 241.308C204.589 240.764 201.446 242.923 200.809 246.218L194.706 277.794C194.63 278.192 194.592 278.594 194.595 278.999C194.597 279.406 194.637 279.806 194.72 280.204C194.801 280.601 194.919 280.987 195.078 281.361C195.234 281.735 195.426 282.09 195.653 282.427C195.88 282.763 196.138 283.073 196.427 283.359C196.716 283.643 197.028 283.899 197.367 284.122C197.705 284.344 198.063 284.533 198.439 284.687C198.813 284.839 199.201 284.955 199.599 285.033L242.63 293.347C243.03 293.425 243.433 293.463 243.838 293.46C244.242 293.458 244.645 293.415 245.042 293.335C245.44 293.254 245.826 293.133 246.2 292.977C246.574 292.819 246.927 292.627 247.263 292.4C247.599 292.172 247.912 291.914 248.196 291.626C248.482 291.339 248.735 291.024 248.96 290.686C249.183 290.347 249.372 289.99 249.524 289.616C249.677 289.239 249.793 288.851 249.869 288.454L255.972 256.877C256.609 253.582 254.492 250.408 251.237 249.686ZM231.145 263.929C231.081 264.114 230.891 264.521 230.877 264.552C230.259 265.764 229.17 266.647 227.897 267.066L228.24 275.744C228.252 275.834 228.252 275.926 228.242 276.016C228.233 276.109 228.212 276.198 228.181 276.284C228.15 276.371 228.112 276.452 228.062 276.53C228.01 276.608 227.954 276.677 227.887 276.741C227.821 276.804 227.748 276.859 227.669 276.906C227.589 276.954 227.506 276.989 227.419 277.018C227.331 277.044 227.241 277.06 227.149 277.065C227.059 277.072 226.966 277.067 226.876 277.053L220.423 275.806C220.334 275.787 220.248 275.756 220.165 275.716C220.083 275.678 220.004 275.628 219.933 275.571C219.862 275.512 219.799 275.448 219.742 275.375C219.687 275.301 219.64 275.223 219.602 275.14C219.564 275.055 219.536 274.97 219.519 274.88C219.503 274.79 219.496 274.698 219.498 274.605C219.503 274.515 219.517 274.425 219.543 274.335C219.567 274.248 219.602 274.163 219.647 274.082L223.068 266.133C222.04 265.269 221.359 264.045 221.238 262.689C221.233 262.656 221.212 262.206 221.221 262.012C221.231 261.775 221.259 261.538 221.304 261.304C221.368 260.975 221.463 260.655 221.588 260.343C221.716 260.033 221.872 259.739 222.057 259.458C222.241 259.178 222.45 258.92 222.687 258.681C222.923 258.442 223.179 258.229 223.456 258.042C223.735 257.853 224.029 257.694 224.336 257.564C224.647 257.434 224.966 257.337 225.293 257.268C225.622 257.202 225.953 257.166 226.289 257.164C226.626 257.164 226.957 257.195 227.286 257.256C227.615 257.32 227.935 257.417 228.247 257.542C228.557 257.67 228.851 257.824 229.132 258.009C229.412 258.193 229.67 258.404 229.909 258.641C230.148 258.878 230.361 259.133 230.548 259.413C230.735 259.69 230.894 259.983 231.024 260.291C231.154 260.601 231.253 260.92 231.32 261.25C231.388 261.576 231.422 261.91 231.424 262.244C231.426 262.58 231.393 262.911 231.329 263.24C231.284 263.475 231.223 263.704 231.145 263.929ZM243.838 248.239L215.284 242.721L216.411 236.896C217.933 229.022 225.572 223.855 233.448 225.377C241.324 226.899 246.486 234.54 244.964 242.414L243.838 248.239Z" fill="#A9C5E7"/>
</g>
</g>
</g>
<mask id="mask23_82_30942" style="mask-type:luminance" maskUnits="userSpaceOnUse" x="188" y="186" width="105" height="130">
<path d="M188.556 186.74H292.789V315.213H188.556V186.74Z" fill="white"/>
</mask>
<g mask="url(#mask23_82_30942)">
<mask id="mask24_82_30942" style="mask-type:luminance" maskUnits="userSpaceOnUse" x="187" y="178" width="117" height="139">
<path d="M210.393 178.925L303.214 196.862L280.103 316.455L187.284 298.519L210.393 178.925Z" fill="white"/>
</mask>
<g mask="url(#mask24_82_30942)">
<mask id="mask25_82_30942" style="mask-type:luminance" maskUnits="userSpaceOnUse" x="187" y="178" width="117" height="139">
<path d="M210.395 178.925L303.216 196.861L280.104 316.455L187.286 298.519L210.395 178.925Z" fill="white"/>
</mask>
<g mask="url(#mask25_82_30942)">
<mask id="mask26_82_30942" style="mask-type:luminance" maskUnits="userSpaceOnUse" x="187" y="178" width="117" height="139">
<path d="M210.397 178.925L303.217 196.861L280.106 316.455L187.288 298.519L210.397 178.925Z" fill="white"/>
</mask>
<g mask="url(#mask26_82_30942)">
<path d="M284.336 241.154L286.232 231.342C290.112 211.273 276.91 191.777 256.81 187.894C236.713 184.01 217.19 197.179 213.31 217.253L211.414 227.065C205.882 226.149 200.594 229.773 199.526 235.305L189.278 288.335C189.212 288.669 189.165 289.005 189.134 289.344C189.101 289.682 189.087 290.021 189.089 290.361C189.091 290.7 189.11 291.039 189.146 291.377C189.181 291.716 189.231 292.052 189.3 292.383C189.368 292.717 189.454 293.046 189.553 293.37C189.655 293.695 189.771 294.014 189.903 294.327C190.034 294.641 190.183 294.947 190.344 295.245C190.505 295.546 190.682 295.834 190.874 296.116C191.063 296.398 191.267 296.67 191.485 296.931C191.703 297.193 191.932 297.444 192.174 297.683C192.415 297.922 192.668 298.147 192.933 298.363C193.199 298.576 193.471 298.777 193.755 298.964C194.039 299.151 194.332 299.324 194.633 299.485C194.934 299.643 195.242 299.785 195.556 299.913C195.874 300.043 196.193 300.155 196.52 300.252C196.846 300.349 197.176 300.429 197.509 300.496L269.884 314.481C270.218 314.545 270.557 314.592 270.895 314.625C271.234 314.656 271.572 314.67 271.913 314.67C272.254 314.668 272.592 314.649 272.931 314.614C273.269 314.578 273.606 314.528 273.939 314.46C274.273 314.391 274.602 314.308 274.927 314.206C275.251 314.107 275.57 313.991 275.885 313.858C276.198 313.728 276.505 313.581 276.804 313.418C277.102 313.257 277.393 313.082 277.675 312.89C277.957 312.701 278.229 312.497 278.492 312.279C278.752 312.064 279.003 311.834 279.242 311.593C279.481 311.352 279.708 311.098 279.924 310.835C280.137 310.57 280.338 310.298 280.525 310.014C280.714 309.73 280.887 309.439 281.046 309.138C281.204 308.838 281.346 308.53 281.477 308.215C281.604 307.9 281.718 307.581 281.813 307.254C281.91 306.93 281.993 306.598 282.057 306.264L292.304 253.234C293.374 247.7 289.814 242.366 284.336 241.154ZM250.551 265.068C250.445 265.376 250.13 266.062 250.102 266.114C249.062 268.148 247.233 269.629 245.09 270.333L245.673 284.907C245.691 285.061 245.694 285.213 245.677 285.367C245.661 285.521 245.628 285.67 245.575 285.816C245.523 285.961 245.457 286.098 245.374 286.228C245.289 286.359 245.192 286.477 245.081 286.583C244.969 286.69 244.846 286.782 244.714 286.86C244.581 286.939 244.439 287 244.292 287.045C244.146 287.09 243.994 287.118 243.84 287.128C243.686 287.137 243.533 287.13 243.381 287.104L232.53 285.007C232.378 284.976 232.232 284.926 232.094 284.858C231.955 284.791 231.824 284.711 231.704 284.614C231.583 284.517 231.476 284.406 231.382 284.285C231.287 284.162 231.209 284.032 231.145 283.89C231.081 283.75 231.036 283.603 231.005 283.452C230.977 283.3 230.965 283.149 230.972 282.992C230.979 282.839 231.003 282.687 231.046 282.54C231.088 282.391 231.145 282.249 231.221 282.114L236.968 268.763C235.243 267.312 234.095 265.255 233.891 262.98C233.884 262.923 233.846 262.168 233.86 261.844C233.879 261.444 233.926 261.046 234.002 260.653C234.109 260.099 234.267 259.562 234.48 259.041C234.693 258.52 234.954 258.023 235.266 257.554C235.576 257.083 235.929 256.648 236.327 256.248C236.722 255.848 237.153 255.49 237.622 255.173C238.088 254.858 238.58 254.593 239.101 254.373C239.622 254.155 240.157 253.989 240.709 253.876C241.262 253.764 241.821 253.705 242.384 253.703C242.948 253.701 243.507 253.753 244.06 253.859C244.614 253.966 245.152 254.127 245.675 254.34C246.198 254.553 246.693 254.813 247.164 255.123C247.635 255.436 248.071 255.788 248.473 256.184C248.873 256.581 249.23 257.012 249.548 257.479C249.863 257.945 250.13 258.44 250.35 258.958C250.568 259.477 250.734 260.011 250.847 260.565C250.961 261.117 251.018 261.673 251.02 262.237C251.025 262.8 250.973 263.359 250.864 263.91C250.788 264.306 250.684 264.689 250.551 265.068ZM271.894 238.721L223.871 229.441L225.762 219.658C228.316 206.434 241.163 197.759 254.41 200.318C267.657 202.879 276.34 215.714 273.783 228.937L271.894 238.721Z" fill="black"/>
</g>
</g>
</g>
</g>
<mask id="mask27_82_30942" style="mask-type:luminance" maskUnits="userSpaceOnUse" x="197" y="195" width="91" height="112">
<path d="M197.042 195.224H287.337V306.123H197.042V195.224Z" fill="white"/>
</mask>
<g mask="url(#mask27_82_30942)">
<mask id="mask28_82_30942" style="mask-type:luminance" maskUnits="userSpaceOnUse" x="196" y="188" width="101" height="120">
<path d="M216.05 188.437L296.377 203.959L276.369 307.489L196.045 291.967L216.05 188.437Z" fill="white"/>
</mask>
<g mask="url(#mask28_82_30942)">
<mask id="mask29_82_30942" style="mask-type:luminance" maskUnits="userSpaceOnUse" x="196" y="188" width="101" height="120">
<path d="M216.05 188.438L296.377 203.959L276.369 307.489L196.045 291.967L216.05 188.438Z" fill="white"/>
</mask>
<g mask="url(#mask29_82_30942)">
<mask id="mask30_82_30942" style="mask-type:luminance" maskUnits="userSpaceOnUse" x="196" y="188" width="101" height="120">
<path d="M216.05 188.438L296.377 203.96L276.369 307.49L196.045 291.968L216.05 188.438Z" fill="white"/>
</mask>
<g mask="url(#mask30_82_30942)">
<path d="M280.034 242.304L281.677 233.81C285.034 216.437 273.61 199.561 256.218 196.2C238.823 192.838 221.929 204.239 218.572 221.617L216.929 230.11C212.143 229.319 207.567 232.456 206.641 237.245L197.769 283.152C197.658 283.73 197.603 284.314 197.606 284.904C197.61 285.496 197.669 286.078 197.788 286.656C197.906 287.233 198.081 287.794 198.309 288.339C198.538 288.883 198.818 289.399 199.149 289.887C199.48 290.377 199.854 290.827 200.276 291.243C200.695 291.658 201.152 292.027 201.644 292.354C202.136 292.678 202.657 292.952 203.204 293.175C203.748 293.397 204.312 293.566 204.892 293.677L267.523 305.78C268.103 305.892 268.688 305.946 269.28 305.944C269.869 305.941 270.454 305.88 271.032 305.761C271.612 305.643 272.173 305.47 272.717 305.241C273.259 305.013 273.778 304.734 274.265 304.403C274.755 304.074 275.207 303.7 275.622 303.278C276.038 302.859 276.408 302.405 276.732 301.912C277.059 301.42 277.333 300.902 277.556 300.355C277.778 299.81 277.946 299.247 278.058 298.667L286.927 252.76C287.853 247.968 284.773 243.352 280.034 242.304ZM250.797 263.007C250.704 263.272 250.43 263.867 250.406 263.911C249.507 265.673 247.923 266.956 246.069 267.564L246.571 280.181C246.59 280.314 246.59 280.446 246.576 280.579C246.562 280.712 246.533 280.842 246.488 280.967C246.443 281.093 246.387 281.211 246.313 281.325C246.24 281.436 246.157 281.538 246.06 281.632C245.963 281.725 245.859 281.803 245.743 281.872C245.627 281.94 245.506 281.992 245.378 282.032C245.25 282.07 245.12 282.094 244.988 282.104C244.853 282.113 244.72 282.106 244.59 282.082L235.199 280.269C235.067 280.241 234.941 280.198 234.82 280.139C234.7 280.082 234.588 280.011 234.484 279.926C234.38 279.843 234.288 279.748 234.205 279.642C234.124 279.537 234.056 279.424 234.001 279.301C233.947 279.18 233.907 279.052 233.881 278.922C233.855 278.789 233.845 278.659 233.852 278.524C233.857 278.392 233.878 278.262 233.914 278.131C233.952 278.004 234.001 277.88 234.068 277.764L239.041 266.205C237.547 264.951 236.556 263.171 236.378 261.201C236.373 261.151 236.34 260.496 236.352 260.216C236.369 259.868 236.409 259.525 236.475 259.184C236.567 258.706 236.705 258.242 236.889 257.79C237.072 257.338 237.299 256.909 237.569 256.502C237.836 256.095 238.142 255.719 238.485 255.373C238.828 255.025 239.202 254.715 239.607 254.443C240.012 254.17 240.438 253.938 240.888 253.749C241.337 253.56 241.801 253.418 242.28 253.318C242.758 253.221 243.241 253.171 243.728 253.169C244.216 253.167 244.701 253.212 245.179 253.304C245.66 253.396 246.124 253.536 246.576 253.718C247.028 253.903 247.459 254.13 247.866 254.398C248.273 254.668 248.65 254.973 248.998 255.316C249.343 255.659 249.653 256.033 249.928 256.436C250.2 256.841 250.432 257.267 250.622 257.717C250.811 258.166 250.953 258.63 251.052 259.108C251.149 259.587 251.199 260.067 251.202 260.555C251.204 261.042 251.159 261.525 251.067 262.006C251 262.347 250.91 262.681 250.797 263.007ZM269.266 240.199L227.709 232.167L229.345 223.697C231.556 212.249 242.675 204.741 254.139 206.954C265.601 209.17 273.115 220.281 270.904 231.729L269.266 240.199Z" fill="black"/>
</g>
</g>
</g>
</g>
<mask id="mask31_82_30942" style="mask-type:luminance" maskUnits="userSpaceOnUse" x="191" y="190" width="100" height="123">
<path d="M191.587 190.982H290.366V312.789H191.587V190.982Z" fill="white"/>
</mask>
<g mask="url(#mask31_82_30942)">
<mask id="mask32_82_30942" style="mask-type:luminance" maskUnits="userSpaceOnUse" x="189" y="183" width="112" height="132">
<path d="M211.973 183.345L300.33 200.419L278.34 314.211L189.984 297.139L211.973 183.345Z" fill="white"/>
</mask>
<g mask="url(#mask32_82_30942)">
<mask id="mask33_82_30942" style="mask-type:luminance" maskUnits="userSpaceOnUse" x="189" y="183" width="112" height="132">
<path d="M211.973 183.344L300.33 200.419L278.34 314.211L189.984 297.139L211.973 183.344Z" fill="white"/>
</mask>
<g mask="url(#mask33_82_30942)">
<path d="M282.177 242.506L283.981 233.174C287.669 214.088 275.137 195.55 256.05 191.862C236.963 188.174 218.421 200.701 214.73 219.793L212.929 229.124C207.674 228.255 202.65 231.702 201.635 236.964L191.889 287.398C191.828 287.715 191.78 288.035 191.752 288.356C191.721 288.678 191.707 289 191.709 289.325C191.712 289.647 191.728 289.969 191.761 290.291C191.794 290.612 191.844 290.932 191.908 291.247C191.974 291.564 192.055 291.877 192.15 292.187C192.244 292.494 192.355 292.797 192.481 293.096C192.606 293.394 192.746 293.685 192.9 293.969C193.054 294.253 193.22 294.53 193.402 294.798C193.582 295.065 193.776 295.323 193.982 295.572C194.188 295.82 194.408 296.057 194.637 296.284C194.867 296.512 195.106 296.729 195.357 296.933C195.608 297.136 195.868 297.326 196.138 297.503C196.408 297.683 196.685 297.847 196.972 297.998C197.258 298.15 197.549 298.285 197.85 298.408C198.148 298.528 198.453 298.637 198.764 298.727C199.071 298.82 199.386 298.898 199.703 298.959L268.433 312.239C268.75 312.301 269.07 312.346 269.392 312.377C269.714 312.407 270.035 312.422 270.36 312.419C270.682 312.417 271.004 312.4 271.326 312.367C271.648 312.334 271.967 312.284 272.282 312.218C272.599 312.154 272.912 312.074 273.222 311.979C273.53 311.884 273.833 311.773 274.131 311.647C274.429 311.522 274.72 311.382 275.004 311.228C275.288 311.075 275.565 310.907 275.833 310.727C276.1 310.544 276.358 310.353 276.607 310.144C276.855 309.938 277.095 309.721 277.322 309.491C277.549 309.261 277.764 309.02 277.968 308.769C278.172 308.518 278.361 308.26 278.541 307.99C278.718 307.72 278.882 307.441 279.033 307.157C279.185 306.87 279.32 306.577 279.443 306.279C279.564 305.978 279.672 305.675 279.765 305.365C279.857 305.055 279.933 304.742 279.994 304.425L289.74 253.989C290.758 248.727 287.378 243.656 282.177 242.506ZM250.085 265.255C249.985 265.546 249.685 266.199 249.659 266.249C248.671 268.185 246.932 269.594 244.898 270.264L245.447 284.124C245.464 284.268 245.466 284.415 245.45 284.559C245.435 284.706 245.402 284.848 245.355 284.986C245.305 285.125 245.241 285.255 245.161 285.379C245.083 285.502 244.99 285.615 244.884 285.717C244.777 285.819 244.661 285.906 244.536 285.98C244.408 286.056 244.276 286.112 244.136 286.157C243.996 286.2 243.852 286.226 243.705 286.235C243.558 286.245 243.414 286.238 243.269 286.214L232.965 284.221C232.821 284.19 232.683 284.143 232.551 284.079C232.418 284.017 232.295 283.939 232.181 283.847C232.068 283.755 231.966 283.65 231.876 283.534C231.786 283.418 231.71 283.293 231.651 283.158C231.59 283.026 231.547 282.886 231.519 282.741C231.49 282.599 231.481 282.453 231.485 282.306C231.493 282.159 231.516 282.017 231.556 281.875C231.597 281.733 231.651 281.6 231.722 281.47L237.183 268.773C235.545 267.395 234.456 265.437 234.262 263.274C234.257 263.219 234.22 262.502 234.236 262.192C234.253 261.811 234.298 261.434 234.369 261.06C234.471 260.535 234.622 260.023 234.826 259.526C235.027 259.031 235.275 258.56 235.571 258.113C235.865 257.666 236.201 257.251 236.577 256.87C236.954 256.489 237.363 256.151 237.808 255.85C238.251 255.549 238.72 255.296 239.214 255.088C239.707 254.879 240.216 254.723 240.741 254.614C241.267 254.508 241.797 254.453 242.332 254.449C242.867 254.446 243.397 254.496 243.925 254.598C244.451 254.699 244.962 254.851 245.457 255.052C245.954 255.256 246.425 255.504 246.87 255.8C247.317 256.094 247.732 256.43 248.113 256.806C248.494 257.185 248.835 257.595 249.133 258.037C249.434 258.482 249.687 258.951 249.895 259.443C250.101 259.938 250.26 260.447 250.366 260.973C250.475 261.496 250.53 262.026 250.532 262.563C250.534 263.098 250.485 263.629 250.383 264.154C250.31 264.528 250.212 264.895 250.085 265.255ZM270.36 240.196L224.755 231.382L226.555 222.077C228.983 209.5 241.186 201.248 253.766 203.679C266.345 206.11 274.588 218.313 272.159 230.89L270.36 240.196Z" fill="white"/>
</g>
</g>
</g>
</g>
<defs>
<clipPath id="clip0_82_30942">
<rect width="490.865" height="490.865" fill="white" transform="translate(0.0898438 0.0898438)"/>
</clipPath>
</defs>
</svg>
